<svg height="448pt" viewBox="0 -36 448 448" width="448pt" xmlns="http://www.w3.org/2000/svg"><path d="m112 216.003906h-72c-4.417969 0-8-3.582031-8-8v-104c0-8.835937-7.164062-16-16-16s-16 7.164063-16 16v160h120v-40c0-4.417968-3.582031-8-8-8zm0 0"/><path d="m0 368.003906c0 4.417969 3.582031 8 8 8s8-3.582031 8-8v-64c0-4.417968 3.582031-8 8-8h72c4.417969 0 8 3.582032 8 8v64c0 4.417969 3.582031 8 8 8s8-3.582031 8-8v-88h-120zm0 0"/><path d="m432 88.003906c-8.835938 0-16 7.164063-16 16v104c0 4.417969-3.582031 8-8 8h-72c-4.417969 0-8 3.582032-8 8v40h120v-160c0-8.835937-7.164062-16-16-16zm0 0"/><path d="m328 368.003906c0 4.417969 3.582031 8 8 8s8-3.582031 8-8v-64c0-4.417968 3.582031-8 8-8h72c4.417969 0 8 3.582032 8 8v64c0 4.417969 3.582031 8 8 8s8-3.582031 8-8v-88h-120zm0 0"/><path d="m216 184.003906h16v16h-16zm0 0"/><path d="m304 152.003906h-168c-4.417969 0-8 3.582032-8 8 0 4.417969 3.582031 8 8 8h168c4.417969 0 8-3.582031 8-8 0-4.417968-3.582031-8-8-8zm0 0"/><path d="m216 216.003906h16v128h-16zm0 0"/><path d="m248 360.003906h-48c-10.167969.011719-19.230469 6.417969-22.632812 16h93.265624c-3.402343-9.582031-12.464843-15.988281-22.632812-16zm0 0"/><path d="m200.214844 37.898438c-.121094.695312-.191406 1.398437-.214844 2.105468 0 8.835938 7.164062 16 16 16v19.664063h-3.40625l-2.945312 9.542969c-5.023438 16.515624-8.097657 33.5625-9.160157 50.792968h47.023438c-1.050781-17.226562-4.109375-34.273437-9.113281-50.792968l-2.949219-9.542969h-3.449219v-19.664063c8.835938 0 16-7.164062 16-16-.023438-.707031-.09375-1.410156-.214844-2.105468 6.371094-3.523438 9.546875-10.921876 7.710938-17.96875-1.835938-7.046876-8.210938-11.957032-15.496094-11.925782-.707031.023438-1.410156.09375-2.105469.214844-2.785156-5.070312-8.109375-8.21875-13.894531-8.21875s-11.109375 3.148438-13.894531 8.21875c-.695313-.121094-1.398438-.191406-2.105469-.214844-7.285156-.03125-13.660156 4.878906-15.496094 11.925782-1.835937 7.046874 1.339844 14.445312 7.710938 17.96875zm0 0"/></svg>