<?xml version="1.0" encoding="iso-8859-1"?>
<!-- Generator: Adobe Illustrator 19.0.0, SVG Export Plug-In . SVG Version: 6.00 Build 0)  -->
<svg version="1.1" id="Capa_1" xmlns="http://www.w3.org/2000/svg" xmlns:xlink="http://www.w3.org/1999/xlink" x="0px" y="0px"
	 viewBox="0 0 512 512" style="enable-background:new 0 0 512 512;" xml:space="preserve">
<circle style="fill:#EA0016;" cx="256" cy="256" r="256"/>
<path style="fill:#C30010;" d="M512,256c0-11.147-0.716-22.127-2.098-32.898L435,148.199L77,174.718l18.058,18.058l-2.273,1.515
	l73.109,73.109L77,398.862l101.03,101.03C202.615,507.746,228.809,512,256,512C397.385,512,512,397.385,512,256z"/>
<rect x="100.36" y="181.66" style="fill:#FFF5F5;" width="73.24" height="190.68"/>
<g>
	<rect x="92.78" y="169.67" style="fill:#EBE1DC;" width="88.39" height="24.624"/>
	<rect x="92.78" y="354.67" style="fill:#EBE1DC;" width="88.39" height="24.624"/>
</g>
<rect x="338.4" y="181.66" style="fill:#F5F0EB;" width="73.24" height="190.68"/>
<g>
	<rect x="330.82" y="169.67" style="fill:#DDD2CE;" width="88.39" height="24.624"/>
	<rect x="330.82" y="354.67" style="fill:#DDD2CE;" width="88.39" height="24.624"/>
</g>
<rect x="219.38" y="181.66" style="fill:#FFF5F5;" width="73.24" height="190.68"/>
<rect x="255.57" y="181.66" style="fill:#F5F0EB;" width="37.05" height="190.68"/>
<rect x="211.8" y="169.67" style="fill:#EBE1DC;" width="88.39" height="24.624"/>
<rect x="255.57" y="169.67" style="fill:#DDD2CE;" width="44.626" height="24.625"/>
<g>
	<rect x="211.8" y="354.67" style="fill:#EBE1DC;" width="88.39" height="24.624"/>
	<polygon style="fill:#EBE1DC;" points="81.137,153.657 256,59.804 430.863,153.662 	"/>
</g>
<polygon style="fill:#DDD2CE;" points="255.571,153.66 430.863,153.663 256,59.804 "/>
<rect x="77" y="148.2" style="fill:#D7D7D7;" width="358" height="26.519"/>
<rect x="255.57" y="148.2" style="fill:#CDCDCD;" width="179.43" height="26.519"/>
<rect x="77" y="372.34" style="fill:#D7D7D7;" width="358" height="26.519"/>
<rect x="255.57" y="372.34" style="fill:#CDCDCD;" width="179.43" height="26.519"/>
<circle style="fill:#FFDE46;" cx="256" cy="326.98" r="76.982"/>
<path style="fill:#FFB64C;" d="M256,250c-0.144,0-0.285,0.01-0.429,0.011v153.941c0.144,0.001,0.285,0.011,0.429,0.011
	c42.516,0,76.982-34.466,76.982-76.982C332.982,284.466,298.516,250,256,250z"/>
<circle style="fill:#FFF04A;" cx="256" cy="326.98" r="56.921"/>
<path style="fill:#FFDE46;" d="M256,270.061c-0.144,0-0.285,0.01-0.429,0.011v113.82c0.143,0.001,0.285,0.011,0.429,0.011
	c31.436,0,56.921-25.484,56.921-56.921S287.436,270.061,256,270.061z"/>
<path style="fill:#E89F00;" d="M284.28,341.606c0-13.46-10.95-24.41-24.41-24.41h-7.74c-2.668,0-4.838-2.17-4.838-4.838
	s2.171-4.839,4.838-4.839h28.888v-19.571h-15.232v-8.481h-19.572v9.21c-10.61,2.651-18.494,12.261-18.494,23.681
	c0,13.459,10.95,24.41,24.41,24.41h7.74c2.668,0,4.838,2.17,4.838,4.838s-2.171,4.838-4.838,4.838h-28.888v19.572h15.232v8.481
	h19.572v-9.21C276.396,362.636,284.28,353.025,284.28,341.606z"/>
<g>
	<polygon style="fill:#E0911B;" points="281.018,307.519 281.018,287.947 265.786,287.947 265.786,279.466 255.571,279.466 
		255.571,307.519 	"/>
	<path style="fill:#E0911B;" d="M259.87,317.196h-4.298v19.572h4.298c2.668,0,4.838,2.17,4.838,4.838s-2.171,4.838-4.838,4.838
		h-4.298v28.053h10.214v-9.21c10.61-2.651,18.494-12.262,18.494-23.681C284.28,328.146,273.329,317.196,259.87,317.196z"/>
</g>
<g>
</g>
<g>
</g>
<g>
</g>
<g>
</g>
<g>
</g>
<g>
</g>
<g>
</g>
<g>
</g>
<g>
</g>
<g>
</g>
<g>
</g>
<g>
</g>
<g>
</g>
<g>
</g>
<g>
</g>
</svg>
