<svg height="512pt" viewBox="-11 0 512 512" width="512pt" xmlns="http://www.w3.org/2000/svg"><path d="m490.238281 120.320312-31.359375 106.667969c-1.277344 4.476563-5.546875 7.679688-10.238281 7.679688h-75.308594v-138.667969c5.976563 0 10.667969 4.691406 10.667969 10.667969 0 10.023437 18.347656 21.332031 42.667969 21.332031 22.183593 0 39.890625-7.894531 43.945312-15.785156 2.558594-4.695313 8.320313-6.828125 13.441407-4.695313 5.117187 1.921875 7.679687 7.679688 6.183593 12.800781zm0 0" fill="#2196f3"/><path d="m373.332031 96v138.667969h-75.304687c-4.695313 0-8.960938-3.203125-10.242188-7.679688l-31.359375-106.667969c-1.492187-5.121093 1.066407-10.878906 6.1875-12.800781 4.90625-2.132812 10.878907 0 13.441407 4.695313 4.050781 7.890625 21.757812 15.785156 43.945312 15.785156 24.320312 0 42.667969-11.308594 42.667969-21.332031 0-5.976563 4.691406-10.667969 10.664062-10.667969zm0 0" fill="#2196f3"/><path d="m250.902344 219.625-71.082032-158.078125c-7.253906-16.105469-26.242187-23.253906-42.304687-16.0625l-97.300781 43.753906c-16.085938 7.230469-23.296875 26.21875-16.066406 42.324219l43.5625 96.832031c1.730468 3.820313 5.546874 6.273438 9.730468 6.273438h163.730469c3.628906 0 7-1.835938 8.960937-4.886719 1.964844-3.050781 2.242188-6.847656.769532-10.15625zm0 0" fill="#607d8b"/><path d="m480 213.332031h-469.332031c-5.890625 0-10.667969 4.78125-10.667969 10.667969v192c0 52.929688 43.070312 96 96 96h298.667969c52.925781 0 96-43.070312 96-96v-192c0-5.886719-4.78125-10.667969-10.667969-10.667969zm0 0" fill="#cfd8dc"/><path d="m245.332031 448c-2.773437 0-5.546875-1.066406-7.464843-3.199219-2.132813-1.921875-3.199219-4.695312-3.199219-7.46875 0-1.277343.210937-2.773437.851562-4.050781.425781-1.28125 1.28125-2.5625 2.347657-3.414062 3.839843-4.054688 11.09375-4.054688 14.933593 0 1.917969 1.917968 3.199219 4.691406 3.199219 7.464843 0 2.773438-1.28125 5.546875-3.199219 7.46875-1.921875 2.132813-4.695312 3.199219-7.46875 3.199219zm0 0"/><path d="m245.355469 405.332031c-5.910157 0-10.667969-4.796875-10.667969-10.664062l.023438-26.667969c0-4.863281 3.285156-9.109375 8-10.304688l2.367187-.574218c15.957031-3.671875 32.253906-10.007813 32.253906-29.101563.023438-16.191406-14.335937-29.351562-32-29.351562-16.894531 0-30.953125 12.074219-32 27.519531-.402343 5.867188-5.246093 10.21875-11.371093 9.917969-5.863282-.402344-10.324219-5.480469-9.917969-11.371094 1.792969-26.578125 25.214843-47.402344 53.289062-47.402344 29.421875 0 53.355469 22.722657 53.355469 50.667969 0 23.980469-14.335938 40.214844-42.644531 48.320312l-.023438 18.347657c0 5.886719-4.777343 10.664062-10.664062 10.664062zm0 0"/><path d="m373.332031 234.667969c-5.886719 0-10.664062-4.78125-10.664062-10.667969v-106.667969c0-5.886719 4.777343-10.664062 10.664062-10.664062 5.890625 0 10.667969 4.777343 10.667969 10.664062v106.667969c0 5.886719-4.777344 10.667969-10.667969 10.667969zm0 0"/><path d="m373.332031 128c-5.886719 0-10.664062-4.777344-10.664062-10.667969v-74.664062c0-11.757813-9.578125-21.335938-21.335938-21.335938-11.753906 0-21.332031 9.578125-21.332031 21.335938v10.664062c0 5.890625-4.777344 10.667969-10.667969 10.667969-5.886719 0-10.664062-4.777344-10.664062-10.667969v-10.664062c0-23.53125 19.132812-42.667969 42.664062-42.667969s42.667969 19.136719 42.667969 42.667969v74.664062c0 5.890625-4.777344 10.667969-10.667969 10.667969zm0 0"/><path d="m448.617188 234.667969h-150.589844c-4.738282 0-8.898438-3.117188-10.21875-7.660157l-31.382813-106.667968c-1.554687-5.246094 1.132813-10.816406 6.1875-12.882813 5.011719-2.007812 10.878907.019531 13.441407 4.839844 4.136718 7.722656 21.714843 15.703125 43.945312 15.703125 24.425781 0 42.667969-11.265625 42.667969-21.332031 0-5.890625 4.777343-10.667969 10.664062-10.667969 5.890625 0 10.667969 4.777344 10.667969 10.667969 0 10.066406 18.238281 21.332031 42.667969 21.332031 22.226562 0 39.808593-7.980469 43.925781-15.703125 2.578125-4.839844 8.359375-6.890625 13.4375-4.839844 5.058594 2.066407 7.746094 7.636719 6.1875 12.882813l-31.382812 106.667968c-1.320313 4.542969-5.480469 7.660157-10.21875 7.660157zm-142.589844-21.335938h134.632812l20.503906-69.695312c-10.945312 3.863281-23.234374 5.695312-34.496093 5.695312-22.507813 0-41.964844-7.378906-53.335938-18.773437-11.371093 11.394531-30.824219 18.773437-53.332031 18.773437-11.265625 0-23.550781-1.832031-34.476562-5.695312zm0 0"/><path d="m67.863281 134.441406c-5.890625 0-10.773437-4.777344-10.773437-10.664062 0-5.890625 4.671875-10.667969 10.558594-10.667969h.214843c5.886719 0 10.664063 4.777344 10.664063 10.667969 0 5.886718-4.777344 10.664062-10.664063 10.664062zm0 0"/><path d="m241.171875 234.667969h-163.753906c-4.203125 0-8-2.453125-9.726563-6.292969l-43.542968-96.8125c-7.230469-16.105469-.019532-35.09375 16.066406-42.324219l97.300781-43.753906c7.808594-3.5 16.488281-3.757813 24.46875-.726563 7.976563 3.027344 14.3125 9.003907 17.8125 16.789063l71.105469 158.078125c1.472656 3.308594 1.195312 7.128906-.769532 10.175781-1.960937 3.050781-5.355468 4.867188-8.960937 4.867188zm-156.839844-21.335938h140.351563l-64.34375-143.039062c-1.171875-2.601563-3.285156-4.585938-5.929688-5.589844-2.644531-.980469-5.546875-.917969-8.171875.234375l-97.277343 43.753906c-5.355469 2.414063-7.765626 8.75-5.335938 14.101563zm0 0"/><path d="m394.667969 512h-298.667969c-52.929688 0-96-43.070312-96-96v-192c0-5.886719 4.777344-10.667969 10.667969-10.667969h469.332031c5.886719 0 10.667969 4.78125 10.667969 10.667969v192c0 52.929688-43.074219 96-96 96zm-373.335938-277.332031v181.332031c0 41.171875 33.496094 74.667969 74.667969 74.667969h298.667969c41.171875 0 74.664062-33.496094 74.664062-74.667969v-181.332031zm0 0"/></svg>