<svg height="512pt" viewBox="-3 0 512 512.00146" width="512pt" xmlns="http://www.w3.org/2000/svg"><path d="m63.125 121.355469v-85.664063c0-15.519531 12.570312-28.101562 28.089844-28.101562h239.574218c16.8125 0 30.433594 13.636718 30.433594 30.449218v145.5625" fill="#ff491f"/><path d="m92.722656 47.328125h-29.601562v36.917969h298.101562v-36.917969h-243.195312" fill="#2d303b"/><path d="m7.59375 391.855469v-234.535157c0-19.863281 16.101562-35.964843 35.964844-35.964843h418.894531c19.863281 0 35.964844 16.101562 35.964844 35.964843v234.535157c0 19.863281-16.101563 35.96875-35.964844 35.96875h-418.894531c-19.863282-.003907-35.964844-16.105469-35.964844-35.96875zm0 0" fill="#3c3f4d"/><path d="m70.828125 274.585938c0 17.460937-14.15625 31.617187-31.617187 31.617187-17.460938 0-31.617188-14.15625-31.617188-31.617187 0-17.460938 14.15625-31.613282 31.617188-31.613282 17.460937 0 31.617187 14.152344 31.617187 31.613282zm0 0" fill="#2d303b"/><path d="m435.496094 379.71875v-210.261719c0-10.019531-8.121094-18.140625-18.140625-18.140625h-328.386719c-10.019531 0-18.140625 8.125-18.140625 18.140625v210.261719c0 10.019531 8.121094 18.140625 18.140625 18.140625h328.386719c10.019531 0 18.140625-8.121094 18.140625-18.140625zm0 0" fill="#c4e2f2"/><path d="m125.46875 151.316406h223.980469v246.542969h-223.980469zm0 0" fill="#83b2c6"/><path d="m405.128906 207v297.40625l-38.960937-22.265625-38.96875 22.265625-38.96875-22.265625-38.960938 22.265625-38.972656-22.265625-38.96875 22.265625v-297.40625c0-15.375-6.234375-29.292969-16.308594-39.375-10.078125-10.074219-24.007812-16.308594-39.382812-16.308594h233.8125c30.75 0 55.679687 24.929688 55.679687 55.683594zm0 0" fill="#e6e6e6"/><path d="m405.128906 207v5.445312h-233.800781v-5.445312c0-15.375-6.234375-29.292969-16.308594-39.375-10.078125-10.074219-24.007812-16.308594-39.382812-16.308594h233.8125c30.75 0 55.679687 24.929688 55.679687 55.683594zm0 0" fill="#ccc"/><path d="m462.449219 113.765625h-93.632813v-75.726563c0-20.976562-17.0625-38.039062-38.03125-38.039062h-239.570312c-19.675782 0-35.679688 16.011719-35.679688 35.691406v78.074219h-11.980468c-24.015626 0-43.554688 19.539063-43.554688 43.554687v38.425782c0 4.195312 3.398438 7.59375 7.59375 7.59375 4.191406 0 7.589844-3.398438 7.589844-7.59375v-38.425782c0-15.644531 12.726562-28.371093 28.371094-28.371093h418.894531c15.644531 0 28.375 12.726562 28.375 28.371093v7.046876c0 4.191406 3.398437 7.589843 7.589843 7.589843 4.191407 0 7.59375-3.398437 7.59375-7.589843v-7.046876c0-24.015624-19.539062-43.554687-43.558593-43.554687zm-391.730469-58.847656h282.914062v21.738281h-282.914062zm20.496094-39.734375h239.574218c12.59375 0 22.84375 10.253906 22.84375 22.855468v1.695313h-282.914062v-4.042969c0-11.308594 9.191406-20.507812 20.496094-20.507812zm-20.496094 76.65625h282.914062v21.925781h-282.914062zm0 0"/><path d="m498.414062 182.082031c-4.191406 0-7.589843 3.398438-7.589843 7.589844v202.1875c0 15.644531-12.730469 28.375-28.375 28.375h-49.726563v-14.78125h4.632813c14.1875 0 25.730469-11.546875 25.730469-25.738281v-210.257813c0-14.1875-11.542969-25.730469-25.730469-25.730469h-328.390625c-14.1875 0-25.730469 11.542969-25.730469 25.730469v74.179688c-6.644531-5.167969-14.976563-8.257813-24.023437-8.257813-9.050782 0-17.386719 3.089844-24.027344 8.257813v-22.582031c0-4.195313-3.398438-7.59375-7.589844-7.59375-4.195312 0-7.59375 3.398437-7.59375 7.59375v170.804687c0 24.019531 19.539062 43.554687 43.554688 43.554687h120.175781v68.996094c0 2.703125 1.441406 5.207032 3.78125 6.566406 2.339843 1.359376 5.226562 1.367188 7.578125.023438l35.203125-20.117188 35.207031 20.117188c2.335938 1.335938 5.199219 1.335938 7.53125 0l35.199219-20.117188 35.199219 20.117188c2.335937 1.335938 5.203124 1.335938 7.535156 0l35.199218-20.117188 35.195313 20.117188c1.167969.667969 2.46875 1 3.769531 1 1.3125 0 2.632813-.339844 3.808594-1.023438 2.339844-1.359374 3.78125-3.859374 3.78125-6.566406v-68.996094h49.730469c24.015625 0 43.554687-19.535156 43.554687-43.554687v-202.1875c.003906-4.191406-3.398437-7.589844-7.589844-7.589844zm-70.511718-12.625v210.253907c0 5.824218-4.730469 10.558593-10.546875 10.558593h-4.632813v-183.269531c0-19.234375-8.636718-36.476562-22.226562-48.09375h26.859375c5.816406.003906 10.546875 4.734375 10.546875 10.550781zm-388.691406 81.105469c13.226562 0 23.992187 10.746094 24.023437 23.96875v.113281c-.03125 13.222657-10.796875 23.96875-24.023437 23.96875-13.25 0-24.027344-10.777343-24.027344-24.023437 0-13.25 10.777344-24.027344 24.027344-24.027344zm4.34375 169.667969c-15.644532 0-28.371094-12.726563-28.371094-28.371094v-86.320313c6.640625 5.167969 14.976562 8.257813 24.027344 8.257813 9.046874 0 17.378906-3.089844 24.023437-8.257813v74.171876c0 14.195312 11.542969 25.742187 25.730469 25.742187h57.058594c4.191406 0 7.589843-3.398437 7.589843-7.59375 0-4.191406-3.398437-7.589844-7.589843-7.589844h-57.058594c-5.816406 0-10.546875-4.738281-10.546875-10.558593v-105.066407c0-.019531 0-.035156 0-.058593 0-.019532 0-.039063 0-.058594v-105.070313c0-5.816406 4.730469-10.546875 10.546875-10.546875h26.667968.007813c26.515625 0 48.089844 21.570313 48.089844 48.089844v213.230469zm326.378906 55.320312c-2.335938-1.335937-5.199219-1.335937-7.535156 0l-35.199219 20.113281-35.199219-20.113281c-2.335938-1.335937-5.199219-1.335937-7.535156 0l-35.199219 20.113281-35.203125-20.113281c-1.167969-.667969-2.46875-1-3.765625-1-1.300781 0-2.601563.332031-3.769531 1l-27.613282 15.777344v-284.328125c0-19.226562-8.617187-36.476562-22.195312-48.089844h192.730469c26.515625 0 48.089843 21.574219 48.089843 48.089844v284.328125zm0 0"/><path d="m468.332031 309.003906c4.195313 0 7.59375-3.398437 7.59375-7.59375v-53.648437c0-4.191407-3.398437-7.589844-7.59375-7.589844-4.191406 0-7.589843 3.398437-7.589843 7.589844v53.648437c0 4.195313 3.398437 7.59375 7.589843 7.59375zm0 0"/><path d="m236.296875 251.800781h-32.390625c-4.191406 0-7.589844 3.402344-7.589844 7.59375 0 4.191407 3.398438 7.589844 7.589844 7.589844h32.390625c4.195313 0 7.59375-3.398437 7.59375-7.589844 0-4.191406-3.398437-7.59375-7.59375-7.59375zm0 0"/><path d="m374.972656 251.800781h-105.273437c-4.191407 0-7.589844 3.402344-7.589844 7.59375 0 4.191407 3.398437 7.589844 7.589844 7.589844h105.273437c4.191406 0 7.589844-3.398437 7.589844-7.589844 0-4.191406-3.398438-7.59375-7.589844-7.59375zm0 0"/><path d="m236.296875 213.90625h-32.390625c-4.191406 0-7.589844 3.398438-7.589844 7.589844s3.398438 7.59375 7.589844 7.59375h32.390625c4.195313 0 7.59375-3.402344 7.59375-7.59375s-3.398437-7.589844-7.59375-7.589844zm0 0"/><path d="m374.972656 213.90625h-105.273437c-4.191407 0-7.589844 3.398438-7.589844 7.589844s3.398437 7.59375 7.589844 7.59375h105.273437c4.191406 0 7.589844-3.402344 7.589844-7.59375s-3.398438-7.589844-7.589844-7.589844zm0 0"/><path d="m233.765625 183.601562c0-4.195312-3.398437-7.59375-7.589844-7.59375h-32.390625c-4.195312 0-7.59375 3.398438-7.59375 7.59375 0 4.191407 3.398438 7.589844 7.59375 7.589844h32.390625c4.191407 0 7.589844-3.398437 7.589844-7.589844zm0 0"/><path d="m372.441406 183.601562c0-4.195312-3.402344-7.59375-7.59375-7.59375h-105.269531c-4.191406 0-7.59375 3.398438-7.59375 7.59375 0 4.191407 3.402344 7.589844 7.59375 7.589844h105.269531c4.191406 0 7.59375-3.398437 7.59375-7.589844zm0 0"/><path d="m236.296875 289.875h-32.390625c-4.191406 0-7.589844 3.402344-7.589844 7.59375s3.398438 7.589844 7.589844 7.589844h32.390625c4.195313 0 7.59375-3.398438 7.59375-7.589844s-3.398437-7.59375-7.59375-7.59375zm0 0"/><path d="m374.972656 289.875h-105.273437c-4.191407 0-7.589844 3.402344-7.589844 7.59375s3.398437 7.589844 7.589844 7.589844h105.273437c4.191406 0 7.589844-3.398438 7.589844-7.589844s-3.398438-7.59375-7.589844-7.59375zm0 0"/><path d="m236.296875 327.953125h-32.390625c-4.191406 0-7.589844 3.398437-7.589844 7.589844 0 4.195312 3.398438 7.59375 7.589844 7.59375h32.390625c4.195313 0 7.59375-3.398438 7.59375-7.59375 0-4.191407-3.398437-7.589844-7.59375-7.589844zm0 0"/><path d="m374.972656 327.953125h-105.273437c-4.191407 0-7.589844 3.398437-7.589844 7.589844 0 4.195312 3.398437 7.59375 7.589844 7.59375h105.273437c4.191406 0 7.589844-3.398438 7.589844-7.59375 0-4.191407-3.398438-7.589844-7.589844-7.589844zm0 0"/><path d="m294.851562 398.332031v-18.699219c3.121094.492188 5.214844 1.550782 6.910157 2.410157 1.457031.738281 2.609375 1.324219 3.898437 1.324219 4.121094 0 5.90625-5.039063 5.90625-7.609376 0-5.488281-8.589844-8.027343-16.714844-8.585937v-1.132813c0-2.871093-2.335937-5.210937-5.210937-5.210937-2.871094 0-5.207031 2.339844-5.207031 5.210937v1.460938c-12.421875 2.078125-19.539063 9.664062-19.539063 20.835938 0 13.734374 11.238281 18.050781 19.539063 21.175781v20.984375c-4.578125-.867188-7.554688-3.179688-9.957032-5.042969-1.957031-1.519531-3.503906-2.722656-5.277343-2.722656-3.550781 0-6.222657 4.683593-6.222657 7.71875 0 5.730469 8.796876 12.605469 21.457032 13.390625v.519531c0 1.609375.738281 3.105469 2.011718 4.089844.757813.714843 1.855469 1.121093 3.011719 1.121093h.1875c2.871094 0 5.210938-2.335937 5.210938-5.210937v-1.101563c11.84375-2.53125 18.628906-10.726562 18.628906-22.511718-.003906-13.339844-8.933594-18.667969-18.632813-22.414063zm5.117188 23.800781c0 3.589844-1.769531 6.234376-5.117188 7.671876v-15.867188c3.535157 2.089844 5.117188 4.632812 5.117188 8.195312zm-15.539062-41.878906v14.109375c-3.171876-1.457031-6.023438-3.402343-6.023438-7.410156 0-3.21875 2.082031-5.53125 6.023438-6.699219zm0 0"/></svg>