<svg height="447pt" viewBox="-92 1 447 447.524" width="447pt" xmlns="http://www.w3.org/2000/svg"><path d="m224.359375 77.242188s-15.449219-77.242188-92.6875-77.242188c-77.242187 0-92.691406 77.242188-92.691406 77.242188h-38.621094v370.757812h262.621094v-370.757812zm0 0" fill="#394d5c"/><path d="m77.601562 77.242188h108.136719v54.066406c0 12.800781-10.375 23.175781-23.171875 23.175781h-61.792968c-12.796876 0-23.171876-10.375-23.171876-23.175781zm0 0" fill="#cfdfe8"/><path d="m201.1875 131.308594h-23.171875v-46.34375h23.171875c12.796875 0 23.171875 10.375 23.171875 23.171875s-10.375 23.171875-23.171875 23.171875zm-7.722656-15.445313h7.722656c4.265625 0 7.722656-3.460937 7.722656-7.726562s-3.457031-7.722657-7.722656-7.722657h-7.722656zm0 0" fill="#aabece"/><path d="m123.945312 23.171875h15.449219v30.898437h-15.449219zm0 0" fill="#cfdfe8"/><path d="m62.152344 154.484375h139.035156v15.445313c0 8.535156-6.917969 15.449218-15.449219 15.449218h-108.136719c-8.53125 0-15.449218-6.914062-15.449218-15.449218zm0 0" fill="#aabece"/><g fill="#f4f4e6"><path d="m77.601562 424.828125c-4.265624 0-7.722656-3.457031-7.722656-7.722656 0 0 0 0 0-.003907v-23.171874l-9.273437 12.355468c-2.804688 3.414063-7.84375 3.90625-11.253907 1.101563-.402343-.332031-.769531-.699219-1.101562-1.101563l-9.269531-12.355468v23.171874c0 4.265626-3.457031 7.726563-7.722657 7.726563-4.265624 0-7.726562-3.460937-7.726562-7.726563v-46.34375c0-4.265624 3.460938-7.722656 7.726562-7.722656 2.429688.003906 4.71875 1.148438 6.175782 3.089844l16.996094 22.652344 16.992187-22.652344c2.558594-3.410156 7.402344-4.101562 10.8125-1.542969 1.945313 1.457031 3.089844 3.746094 3.089844 6.175781v46.34375c.003906 4.265626-3.453125 7.726563-7.71875 7.726563-.003907 0-.003907 0-.003907 0zm0 0"/><path d="m178.015625 424.828125c-2.582031 0-4.996094-1.292969-6.429687-3.441406l-16.742188-25.117188v20.832031c0 4.265626-3.460938 7.726563-7.726562 7.726563-4.265626 0-7.722657-3.460937-7.722657-7.726563v-46.34375c0-4.265624 3.457031-7.722656 7.722657-7.722656 2.582031 0 4.996093 1.289063 6.425781 3.4375l16.746093 25.121094v-20.835938c0-4.265624 3.460938-7.722656 7.726563-7.722656s7.722656 3.457032 7.722656 7.722656v46.34375c0 3.40625-2.230469 6.40625-5.488281 7.394532-.722656.21875-1.476562.332031-2.234375.332031zm0 0"/><path d="m123.945312 409.378906h-15.449218v-7.722656h7.726562c4.265625 0 7.722656-3.460938 7.722656-7.726562 0-4.265626-3.457031-7.722657-7.722656-7.722657h-7.726562v-7.726562h15.449218c4.265626 0 7.722657-3.457031 7.722657-7.722657 0-4.265624-3.457031-7.722656-7.722657-7.722656h-23.171874c-4.265626-.003906-7.722657 3.453125-7.726563 7.71875v.003906 46.34375c0 4.265626 3.457031 7.726563 7.722656 7.726563h.003907 23.171874c4.265626 0 7.722657-3.460937 7.722657-7.726563 0-4.265624-3.457031-7.722656-7.722657-7.722656zm0 0"/><path d="m216.636719 424.828125c-12.792969-.015625-23.160157-10.378906-23.171875-23.171875v-30.898438c0-4.265624 3.457031-7.722656 7.722656-7.722656s7.722656 3.457032 7.722656 7.722656v30.898438c0 4.265625 3.460938 7.722656 7.726563 7.722656s7.722656-3.457031 7.722656-7.722656v-30.898438c0-4.265624 3.460937-7.722656 7.722656-7.722656 4.265625 0 7.726563 3.457032 7.726563 7.722656v30.898438c-.015625 12.792969-10.382813 23.15625-23.171875 23.171875zm0 0"/><path d="m23.53125 208.550781h77.242188v15.449219h-77.242188zm0 0"/><path d="m208.910156 208.550781h30.898438v15.449219h-30.898438zm0 0"/><path d="m23.53125 239.449219h77.242188v15.445312h-77.242188zm0 0"/><path d="m208.910156 239.449219h30.898438v15.445312h-30.898438zm0 0"/><path d="m23.53125 270.34375h77.242188v15.449219h-77.242188zm0 0"/><path d="m208.910156 270.34375h30.898438v15.449219h-30.898438zm0 0"/><path d="m23.53125 301.242188h77.242188v15.449218h-77.242188zm0 0"/><path d="m208.910156 301.242188h30.898438v15.449218h-30.898438zm0 0"/><path d="m23.53125 332.136719h77.242188v15.449219h-77.242188zm0 0"/><path d="m208.910156 332.136719h30.898438v15.449219h-30.898438zm0 0"/></g></svg>