<svg xmlns="http://www.w3.org/2000/svg" height="464pt" version="1.1" viewBox="0 0 464 464" width="464pt">
<g id="surface1">
<path d="M 0 64 L 464 64 L 464 0 L 0 0 Z M 104 32 Z M 72 32 Z M 40 32 Z M 40 32 " style=" stroke:none;fill-rule:nonzero;fill:rgb(14.117647%,53.333333%,100%);fill-opacity:1;" />
<path d="M 0 464 L 464 464 L 464 64 L 0 64 Z M 320 152 L 400 152 L 400 216 L 320 216 Z M 320 312 L 400 312 L 400 376 L 320 376 Z M 192 152 L 272 152 L 272 216 L 192 216 Z M 192 312 L 272 312 L 272 376 L 192 376 Z M 64 152 L 144 152 L 144 216 L 64 216 Z M 64 312 L 144 312 L 144 376 L 64 376 Z M 64 312 " style=" stroke:none;fill-rule:nonzero;fill:rgb(74.117647%,85.882353%,100%);fill-opacity:1;" />
<path d="M 192 312 L 272 312 L 272 376 L 192 376 Z M 192 312 " style=" stroke:none;fill-rule:nonzero;fill:rgb(12.941176%,25.098039%,60.392157%);fill-opacity:1;" />
<path d="M 192 152 L 272 152 L 272 216 L 192 216 Z M 192 152 " style=" stroke:none;fill-rule:nonzero;fill:rgb(12.941176%,25.098039%,60.392157%);fill-opacity:1;" />
<path d="M 320 312 L 400 312 L 400 376 L 320 376 Z M 320 312 " style=" stroke:none;fill-rule:nonzero;fill:rgb(12.941176%,25.098039%,60.392157%);fill-opacity:1;" />
<path d="M 320 152 L 400 152 L 400 216 L 320 216 Z M 320 152 " style=" stroke:none;fill-rule:nonzero;fill:rgb(12.941176%,25.098039%,60.392157%);fill-opacity:1;" />
<path d="M 64 312 L 144 312 L 144 376 L 64 376 Z M 64 312 " style=" stroke:none;fill-rule:nonzero;fill:rgb(12.941176%,25.098039%,60.392157%);fill-opacity:1;" />
<path d="M 64 152 L 144 152 L 144 216 L 64 216 Z M 64 152 " style=" stroke:none;fill-rule:nonzero;fill:rgb(12.941176%,25.098039%,60.392157%);fill-opacity:1;" />
<path d="M 24 24 L 40 24 L 40 40 L 24 40 Z M 24 24 " style=" stroke:none;fill-rule:nonzero;fill:rgb(12.941176%,25.098039%,60.392157%);fill-opacity:1;" />
<path d="M 56 24 L 72 24 L 72 40 L 56 40 Z M 56 24 " style=" stroke:none;fill-rule:nonzero;fill:rgb(12.941176%,25.098039%,60.392157%);fill-opacity:1;" />
<path d="M 88 24 L 104 24 L 104 40 L 88 40 Z M 88 24 " style=" stroke:none;fill-rule:nonzero;fill:rgb(12.941176%,25.098039%,60.392157%);fill-opacity:1;" />
</g>
</svg>