<svg xmlns="http://www.w3.org/2000/svg" height="464pt" version="1.1" viewBox="0 -60 464 464" width="464pt">
<g id="surface1">
<path d="M 0 240 L 128 240 C 128 182.5625 174.5625 136 232 136 C 289.4375 136 336 182.5625 336 240 L 464 240 L 464 0 L 0 0 Z M 360 32 Z M 104 32 Z M 104 32 " style=" stroke:none;fill-rule:nonzero;fill:rgb(74.117647%,85.882353%,100%);fill-opacity:1;" />
<path d="M 232 136 C 174.5625 136 128 182.5625 128 240 C 128 297.4375 174.5625 344 232 344 C 289.4375 344 336 297.4375 336 240 C 336 182.5625 289.4375 136 232 136 Z M 232 312 L 232 240 Z M 232 312 " style=" stroke:none;fill-rule:nonzero;fill:rgb(36.862745%,67.45098%,14.117647%);fill-opacity:1;" />
<path d="M 232 128 C 227.582031 128 224 124.417969 224 120 L 224 32 C 224 27.582031 227.582031 24 232 24 C 236.417969 24 240 27.582031 240 32 L 240 120 C 240 124.417969 236.417969 128 232 128 Z M 232 128 " style=" stroke:none;fill-rule:nonzero;fill:rgb(12.941176%,25.098039%,60.392157%);fill-opacity:1;" />
<path d="M 360 216 C 355.582031 216 352 212.417969 352 208 L 352 32 C 352 27.582031 355.582031 24 360 24 C 364.417969 24 368 27.582031 368 32 L 368 208 C 368 212.417969 364.417969 216 360 216 Z M 360 216 " style=" stroke:none;fill-rule:nonzero;fill:rgb(12.941176%,25.098039%,60.392157%);fill-opacity:1;" />
<path d="M 104 216 C 99.582031 216 96 212.417969 96 208 L 96 32 C 96 27.582031 99.582031 24 104 24 C 108.417969 24 112 27.582031 112 32 L 112 208 C 112 212.417969 108.417969 216 104 216 Z M 104 216 " style=" stroke:none;fill-rule:nonzero;fill:rgb(12.941176%,25.098039%,60.392157%);fill-opacity:1;" />
<path d="M 304 248 L 160 248 C 155.582031 248 152 244.417969 152 240 C 152 235.582031 155.582031 232 160 232 L 304 232 C 308.417969 232 312 235.582031 312 240 C 312 244.417969 308.417969 248 304 248 Z M 304 248 " style=" stroke:none;fill-rule:nonzero;fill:rgb(94.509804%,94.901961%,94.901961%);fill-opacity:1;" />
<path d="M 232 320 C 227.582031 320 224 316.417969 224 312 L 224 168 C 224 163.582031 227.582031 160 232 160 C 236.417969 160 240 163.582031 240 168 L 240 312 C 240 316.417969 236.417969 320 232 320 Z M 232 320 " style=" stroke:none;fill-rule:nonzero;fill:rgb(94.509804%,94.901961%,94.901961%);fill-opacity:1;" />
</g>
</svg>