<svg xmlns="http://www.w3.org/2000/svg" height="583pt" version="1.1" viewBox="-42 1 583 583.809" width="583pt">
<g id="surface1">
<path d="M 10.152344 9.734375 L 418.953125 9.734375 L 418.953125 574.265625 L 10.152344 574.265625 Z M 10.152344 9.734375 " style=" stroke:none;fill-rule:nonzero;fill:rgb(0%,84.313725%,87.45098%);fill-opacity:1;" />
<path d="M 303.332031 453.929688 L 447.859375 309.398438 L 489.15625 350.695312 L 344.625 495.226562 Z M 303.332031 453.929688 " style=" stroke:none;fill-rule:nonzero;fill:rgb(100%,59.607843%,6.666667%);fill-opacity:1;" />
<path d="M 282.683594 515.867188 L 344.628906 495.222656 L 303.328125 453.921875 Z M 282.683594 515.867188 " style=" stroke:none;fill-rule:nonzero;fill:rgb(100%,59.607843%,6.666667%);fill-opacity:1;" />
<path d="M 49.085938 292 L 68.550781 292 L 68.550781 311.464844 L 49.085938 311.464844 Z M 49.085938 292 " style=" stroke:none;fill-rule:nonzero;fill:rgb(100%,92.156863%,60%);fill-opacity:1;" />
<path d="M 88.019531 292 L 399.484375 292 L 399.484375 311.464844 L 88.019531 311.464844 Z M 88.019531 292 " style=" stroke:none;fill-rule:nonzero;fill:rgb(100%,92.156863%,60%);fill-opacity:1;" />
<path d="M 49.085938 194.667969 L 68.550781 194.667969 L 68.550781 214.132812 L 49.085938 214.132812 Z M 49.085938 194.667969 " style=" stroke:none;fill-rule:nonzero;fill:rgb(100%,92.156863%,60%);fill-opacity:1;" />
<path d="M 88.019531 194.667969 L 399.484375 194.667969 L 399.484375 214.132812 L 88.019531 214.132812 Z M 88.019531 194.667969 " style=" stroke:none;fill-rule:nonzero;fill:rgb(100%,92.156863%,60%);fill-opacity:1;" />
<path d="M 49.085938 389.332031 L 68.550781 389.332031 L 68.550781 408.800781 L 49.085938 408.800781 Z M 49.085938 389.332031 " style=" stroke:none;fill-rule:nonzero;fill:rgb(100%,92.156863%,60%);fill-opacity:1;" />
<path d="M 88.019531 389.332031 L 350.816406 389.332031 L 350.816406 408.800781 L 88.019531 408.800781 Z M 88.019531 389.332031 " style=" stroke:none;fill-rule:nonzero;fill:rgb(100%,92.156863%,60%);fill-opacity:1;" />
<path d="M 409.21875 564.53125 L 19.882812 564.53125 L 19.882812 19.464844 L 409.21875 19.464844 L 409.21875 292 L 428.683594 292 L 428.683594 9.734375 C 428.683594 4.355469 424.328125 0 418.949219 0 L 10.152344 0 C 4.777344 0 0.417969 4.355469 0.417969 9.734375 L 0.417969 574.265625 C 0.417969 579.640625 4.777344 584 10.152344 584 L 418.953125 584 C 424.328125 584 428.683594 579.640625 428.683594 574.265625 L 428.683594 476.933594 L 409.21875 476.933594 Z M 409.21875 564.53125 " style=" stroke:none;fill-rule:nonzero;fill:rgb(13.72549%,12.156863%,12.54902%);fill-opacity:1;" />
<path d="M 39.351562 282.265625 L 58.816406 282.265625 L 58.816406 301.734375 L 39.351562 301.734375 Z M 39.351562 282.265625 " style=" stroke:none;fill-rule:nonzero;fill:rgb(13.72549%,12.156863%,12.54902%);fill-opacity:1;" />
<path d="M 78.285156 282.265625 L 389.75 282.265625 L 389.75 301.734375 L 78.285156 301.734375 Z M 78.285156 282.265625 " style=" stroke:none;fill-rule:nonzero;fill:rgb(13.72549%,12.156863%,12.54902%);fill-opacity:1;" />
<path d="M 39.351562 184.933594 L 58.816406 184.933594 L 58.816406 204.398438 L 39.351562 204.398438 Z M 39.351562 184.933594 " style=" stroke:none;fill-rule:nonzero;fill:rgb(13.72549%,12.156863%,12.54902%);fill-opacity:1;" />
<path d="M 78.285156 184.933594 L 389.75 184.933594 L 389.75 204.398438 L 78.285156 204.398438 Z M 78.285156 184.933594 " style=" stroke:none;fill-rule:nonzero;fill:rgb(13.72549%,12.156863%,12.54902%);fill-opacity:1;" />
<path d="M 39.351562 379.597656 L 58.816406 379.597656 L 58.816406 399.066406 L 39.351562 399.066406 Z M 39.351562 379.597656 " style=" stroke:none;fill-rule:nonzero;fill:rgb(13.72549%,12.156863%,12.54902%);fill-opacity:1;" />
<path d="M 78.285156 379.597656 L 341.085938 379.597656 L 341.085938 399.066406 L 78.285156 399.066406 Z M 78.285156 379.597656 " style=" stroke:none;fill-rule:nonzero;fill:rgb(13.72549%,12.156863%,12.54902%);fill-opacity:1;" />
<path d="M 496.039062 343.800781 L 454.75 302.511719 C 450.949219 298.710938 444.789062 298.710938 440.988281 302.511719 L 296.449219 447.042969 C 296.351562 447.136719 296.320312 447.277344 296.222656 447.371094 C 295.5625 448.09375 295.019531 448.910156 294.609375 449.796875 C 294.5 450.019531 294.375 450.222656 294.285156 450.457031 C 294.199219 450.691406 294.152344 450.703125 294.101562 450.835938 L 273.457031 512.789062 C 271.757812 517.890625 274.515625 523.402344 279.617188 525.101562 C 280.605469 525.429688 281.640625 525.597656 282.683594 525.597656 C 283.730469 525.597656 284.769531 525.429688 285.761719 525.09375 L 347.710938 504.449219 C 347.847656 504.449219 347.957031 504.3125 348.089844 504.261719 C 348.226562 504.214844 348.53125 504.050781 348.753906 503.941406 C 349.640625 503.53125 350.457031 502.988281 351.175781 502.328125 C 351.273438 502.230469 351.410156 502.199219 351.507812 502.101562 L 496.039062 357.5625 C 499.839844 353.761719 499.839844 347.601562 496.039062 343.800781 Z M 298.070312 500.507812 L 307.589844 471.96875 L 326.609375 490.988281 Z M 344.628906 481.488281 L 317.089844 453.953125 L 447.867188 323.144531 L 475.402344 350.679688 Z M 344.628906 481.488281 " style=" stroke:none;fill-rule:nonzero;fill:rgb(13.72549%,12.156863%,12.54902%);fill-opacity:1;" />
</g>
</svg>