<svg height="451pt" viewBox="0 0 451 451.76" width="451pt" xmlns="http://www.w3.org/2000/svg"><path d="m436.765625 92.5625-77.1875-77.183594c-7.925781-7.925781-18.671875-12.375-29.878906-12.375h-284.0625c-23.339844 0-42.257813 18.917969-42.257813 42.253906v361.246094c0 23.339844 18.917969 42.257813 42.257813 42.257813h361.246093c23.335938 0 42.253907-18.917969 42.253907-42.257813v-284.058594c.003906-11.210937-4.449219-21.957031-12.371094-29.882812zm0 0" fill="#87796f"/><path d="m438.882812 90.441406-77.1875-77.183594c-8.546874-8.550781-19.910156-13.257812-32-13.257812h-284.058593c-24.957031 0-45.257813 20.300781-45.257813 45.257812v61.464844c0 1.65625 1.34375 3 3 3s3-1.34375 3-3v-61.464844c0-21.648437 17.609375-39.257812 39.257813-39.257812h284.058593c10.488282 0 20.34375 4.085938 27.757813 11.496094l77.1875 77.1875c7.414063 7.417968 11.496094 17.273437 11.496094 27.757812v284.0625c0 21.644532-17.609375 39.253906-39.253907 39.253906h-361.246093c-21.648438 0-39.257813-17.609374-39.257813-39.253906v-268.132812c0-1.660156-1.34375-3-3-3s-3 1.339844-3 3v268.132812c0 24.953125 20.300782 45.253906 45.257813 45.253906h361.246093c24.957032 0 45.253907-20.300781 45.253907-45.253906v-284.058594c0-12.089843-4.703125-23.457031-13.253907-32.003906zm0 0" fill="#3a312a"/><path d="m344.078125 197.941406h-235.636719c-19.972656 0-36.160156 16.1875-36.160156 36.160156v214.660157h307.957031v-214.660157c0-19.972656-16.1875-36.160156-36.160156-36.160156zm0 0" fill="#d7e057"/><path d="m344.078125 194.941406h-81.625c-1.65625 0-3 1.339844-3 3 0 1.65625 1.34375 3 3 3h81.625c18.289063 0 33.160156 14.875 33.160156 33.160156v211.660157h-301.957031v-211.660157c0-18.285156 14.875-33.160156 33.160156-33.160156h123.628906c1.65625 0 3-1.34375 3-3 0-1.660156-1.34375-3-3-3h-123.628906c-21.59375 0-39.160156 17.566406-39.160156 39.160156v214.660157c0 1.65625 1.34375 3 3 3h307.957031c1.65625 0 3-1.34375 3-3v-214.660157c0-21.59375-17.5625-39.160156-39.160156-39.160156zm0 0" fill="#3a312a"/><path d="m129.601562 3v88.878906c0 19.972656 16.1875 36.160156 36.160157 36.160156h121c19.96875 0 36.160156-16.1875 36.160156-36.160156v-88.878906zm0 0" fill="#f16c7a"/><g fill="#3a312a"><path d="m322.921875 0h-193.320313c-1.65625 0-3 1.34375-3 3v88.878906c0 21.59375 17.5625 39.160156 39.160157 39.160156h121c21.59375 0 39.160156-17.566406 39.160156-39.160156v-88.878906c0-1.65625-1.347656-3-3-3zm-3 91.878906c0 18.285156-14.878906 33.160156-33.160156 33.160156h-121c-18.289063 0-33.160157-14.875-33.160157-33.160156v-85.878906h187.320313zm0 0"/><path d="m336.761719 248.378906h-221c-1.65625 0-3 1.34375-3 3 0 1.660156 1.34375 3 3 3h221c1.652343 0 3-1.339844 3-3 0-1.65625-1.347657-3-3-3zm0 0"/><path d="m336.761719 296.378906h-221c-1.65625 0-3 1.34375-3 3 0 1.660156 1.34375 3 3 3h221c1.652343 0 3-1.339844 3-3 0-1.65625-1.347657-3-3-3zm0 0"/><path d="m336.761719 344.378906h-221c-1.65625 0-3 1.34375-3 3 0 1.660156 1.34375 3 3 3h221c1.652343 0 3-1.339844 3-3 0-1.65625-1.347657-3-3-3zm0 0"/><path d="m336.761719 392.378906h-221c-1.65625 0-3 1.34375-3 3 0 1.660156 1.34375 3 3 3h221c1.652343 0 3-1.339844 3-3 0-1.65625-1.347657-3-3-3zm0 0"/></g><path d="m278.855469 23.214844h-8.511719c-9.144531 0-16.558594 7.414062-16.558594 16.558594v47.546874c0 9.144532 7.414063 16.558594 16.558594 16.558594h8.511719c9.144531 0 16.558593-7.414062 16.558593-16.558594v-47.546874c0-9.144532-7.414062-16.558594-16.558593-16.558594zm0 0" fill="#8ac6dd"/><path d="m278.855469 20.214844h-8.511719c-10.785156 0-19.558594 8.773437-19.558594 19.558594v47.546874c0 10.785157 8.773438 19.558594 19.558594 19.558594h8.511719c10.785156 0 19.558593-8.773437 19.558593-19.558594v-47.546874c0-10.785157-8.777343-19.558594-19.558593-19.558594zm13.558593 67.105468c0 7.476563-6.085937 13.558594-13.558593 13.558594h-8.511719c-7.476562 0-13.558594-6.082031-13.558594-13.558594v-47.546874c0-7.476563 6.082032-13.558594 13.558594-13.558594h8.511719c7.472656 0 13.558593 6.082031 13.558593 13.558594zm0 0" fill="#3a312a"/><path d="m434.640625 94.679688-77.179687-77.179688c-7.421876-7.421875-17.28125-11.5-27.761719-11.5h-3.777344v9.480469c.757813.640625 1.5 1.320312 2.199219 2.019531l77.179687 77.179688c7.417969 7.421874 11.5 17.28125 11.5 27.761718v284.058594c0 19.699219-14.601562 36.078125-33.5625 38.839844v.421875h23.640625c21.640625 0 39.261719-17.621094 39.261719-39.261719v-284.058594c0-10.480468-4.082031-20.339844-11.5-27.761718zm0 0" fill="#695b51"/></svg>