<svg height="512pt" viewBox="0 -32 512 511" width="512pt" xmlns="http://www.w3.org/2000/svg"><path d="m321.675781 79.445312h-97.386719l-20.90625 176.585938h139.199219zm0 0" fill="#b7724a"/><path d="m207.4375 60.4375h131.089844v29.96875h-131.089844zm0 0" fill="#a0401a"/><path d="m255.28125 256.03125h87.300781l-20.90625-176.585938h-66.394531zm0 0" fill="#a0401a"/><path d="m255.28125 60.4375h83.246094v29.96875h-83.246094zm0 0" fill="#862712"/><path d="m371.835938 21.015625-20.429688 235.015625h138.160156l-20.429687-235.015625zm0 0" fill="#1bb67b"/><path d="m173.371094 241.046875v-48.644531l-148.835938 52.429687v187.503907h463.492188v-191.289063zm0 0" fill="#fb983b"/><path d="m255.316406 241.046875h232.710938v191.289063h-232.710938zm0 0" fill="#f75139"/><path d="m10.914062 272.121094-10.914062-27.835938 193.652344-75.929687v57.582031h317.785156v29.898438h-347.6875v-43.640626zm0 0" fill="#f75139"/><path d="m255.316406 225.9375h256.121094v29.898438h-256.121094zm0 0" fill="#c50c1c"/><path d="m338.777344 294.449219h89.496094v29.964843h-89.496094zm0 0" fill="#fb983b"/><path d="m338.777344 354.386719h89.496094v29.96875h-89.496094zm0 0" fill="#fb983b"/><path d="m354.941406.5h131.085938v29.96875h-131.085938zm0 0" fill="#008b66"/><path d="m79.03125 286.734375h90.371094v145.601563h-90.371094zm0 0" fill="#a0401a"/><path d="m218.902344 294.449219h89.496094v29.964843h-89.496094zm0 0" fill="#fed330"/><path d="m218.902344 354.386719h89.496094v29.96875h-89.496094zm0 0" fill="#fed330"/><path d="m255.316406 294.449219h53.082032v29.964843h-53.082032zm0 0" fill="#fb983b"/><path d="m255.316406 354.386719h53.082032v29.96875h-53.082032zm0 0" fill="#fb983b"/><path d="m.5625 418.152344h511.4375v29.96875h-511.4375zm0 0" fill="#f75139"/><path d="m255.316406 418.152344h256.683594v29.96875h-256.683594zm0 0" fill="#c50c1c"/></svg>